<!--?xml version="1.0" encoding="utf-8"?-->
<!-- Generator: Adobe Illustrator 19.1.1, SVG Export Plug-In . SVG Version: 6.00 Build 0)  -->
<svg version="1.1" id="_x31_0" xmlns="http://www.w3.org/2000/svg" xmlns:xlink="http://www.w3.org/1999/xlink" x="0px" y="0px" viewBox="0 0 512 512" style="width: 256px; height: 256px; opacity: 1;" xml:space="preserve">
<style type="text/css">
	.st0{fill:#374149;}
</style>
<g>
	<path class="st0" d="M507.301,232.057c2.598,0,4.699-2.101,4.699-4.695v-59.023c0-8.863-7.183-16.047-16.047-16.047H268.754
		c-8.863,0-16.046-7.183-16.046-16.046V64.865c0-13.297-15.211-20.843-25.75-12.82L6.348,219.241
		c-4.106,3.086-6.094,7.586-6.278,12.148c-0.008,0.172-0.062,0.336-0.07,0.508h0.016c0,0.055-0.016,0.11-0.016,0.16H507.301z" style="fill: rgb(75, 75, 75);"></path>
	<path class="st0" d="M16.047,359.733h227.199c8.863,0,16.046,7.184,16.046,16.047v71.378c0,2.465,0.657,4.641,1.574,6.649v0.004
		c4.039,8.82,15.59,12.703,24.176,6.168l220.609-167.195c4.11-3.09,6.094-7.59,6.278-12.153c0.008-0.172,0.062-0.336,0.07-0.508
		h-0.016c0-0.05,0.016-0.105,0.016-0.156H4.699c-2.598,0-4.699,2.102-4.699,4.695v59.024C0,352.545,7.183,359.733,16.047,359.733z" style="fill: rgb(75, 75, 75);"></path>
</g>
</svg>
