<!--?xml version="1.0" encoding="utf-8"?-->
<!-- Generator: Adobe Illustrator 18.1.1, SVG Export Plug-In . SVG Version: 6.00 Build 0)  -->

<svg version="1.1" id="_x31_0" xmlns="http://www.w3.org/2000/svg" xmlns:xlink="http://www.w3.org/1999/xlink" x="0px" y="0px" viewBox="0 0 512 512" style="width: 256px; height: 256px; opacity: 1;" xml:space="preserve">
<style type="text/css">
	.st0{fill:#374149;}
</style>
<g>
	<path class="st0" d="M437.622,167.887H74.459c-5.24,0-9.527,4.206-9.527,9.446v325.139c0,5.24,4.287,9.527,9.527,9.527h363.162
		c5.241,0,9.446-4.287,9.446-9.527V177.334C447.068,172.093,442.862,167.887,437.622,167.887z M142.319,357.853l17.396-17.79h-0.155
		l0.155-0.159h-49.218l-1.209,1.21l-0.775,0.643V220.914c0-5.24,4.286-9.527,9.527-9.527H234.25v128.516h-29.05l-24.876,25.62
		l-17.434,17.802h0.151l-0.151,0.159h49.294l12.876-13.298l9.19-9.326v107.558H118.041c-5.241,0-9.527-4.286-9.527-9.523v-75.41
		h8.969L142.319,357.853z M403.49,339.903h-8.892l-24.872,25.62l-17.438,17.802h0.155l-0.155,0.159h49.294l1.151-1.198l0.756-0.651
		v77.259c0,5.237-4.21,9.523-9.446,9.523H277.831v-84.934h29.05l24.838-25.632l17.395-17.79h-0.155l0.155-0.159h-49.218
		l-12.876,13.294l-9.19,9.326V211.387h116.214c5.236,0,9.446,4.287,9.446,9.527V339.903z" style="fill: rgb(75, 75, 75);"></path>
	<path class="st0" d="M137.327,136.771c11.035,5.159,23.496,8.81,37.07,10.872c23.497,3.574,55.09,7.861,72.078,7.861
		c1.985,0,5.636,0,9.527-0.636c3.888,0.636,7.539,0.636,9.605,0.636c16.907,0,48.5-4.287,72.078-7.861
		c13.574-2.062,26.035-5.794,36.988-10.954c16.275-7.62,27.783-17.461,36.279-31.034c7.938-12.702,11.748-26.117,11.113-38.659
		c-0.714-12.779-4.764-25.244-11.83-35.961c-7.062-10.714-16.907-19.369-28.338-25.082C373.8,1.985,364.514,0,354.354,0
		c-4.05,0-8.178,0.318-12.384,0.95c-15.876,2.462-29.45,9.132-42.868,21.038c-9.046,8.016-17.302,18.098-24.605,29.768
		c-6.473,10.302-11.864,19.252-16.53,27.151c-0.682,1.108-1.403,2.29-2.008,3.255c-4.992-8.635-11.093-18.612-18.376-30.406
		c-7.302-11.67-15.558-21.67-24.605-29.768C199.564,10.082,185.909,3.411,170.11,0.95C165.905,0.318,161.699,0,157.649,0
		c-10.158,0-19.368,1.985-27.465,5.954c-11.512,5.713-21.275,14.368-28.338,25.082c-7.066,10.717-11.194,23.101-11.829,35.961
		c-0.714,12.542,3.097,25.958,11.034,38.659C109.626,119.229,121.134,129.07,137.327,136.771z M223.025,111.038
		c-11.647-1.271-25.973-3.248-42.198-5.701c-9.523-1.43-18.019-3.892-25.24-7.306c-8.733-4.124-14.132-8.651-18.26-15.082
		c-3.097-5.078-4.841-10.082-4.605-13.733c0.241-5.158,1.907-10.24,4.846-14.604c2.856-4.446,6.902-7.938,11.507-10.241
		c2.144-1.031,5.159-1.589,8.574-1.589c1.826,0,3.81,0.158,5.876,0.477c7.539,1.112,13.892,4.368,21.035,10.717
		c5.954,5.318,11.589,12.225,16.67,20.399c7.326,11.682,13.542,22.078,18.783,31.206
		C221.037,107.414,222.071,109.26,223.025,111.038z M288.92,110.954c5.787-10.221,13.07-22.489,21.853-36.578
		c5.241-8.334,10.718-15,16.748-20.399c7.144-6.349,13.415-9.605,21.035-10.717c1.985-0.318,3.969-0.477,5.876-0.477
		c3.414,0,6.43,0.558,8.492,1.589c4.686,2.302,8.655,5.794,11.59,10.241c2.86,4.364,4.527,9.446,4.845,14.604
		c0.159,3.651-1.508,8.655-4.686,13.733c-4.046,6.43-9.523,10.958-18.178,15.082c-7.222,3.414-15.718,5.876-25.322,7.306
		c-13.778,2.093-26.178,3.81-36.79,5.07C292.529,110.597,290.63,110.806,288.92,110.954z" style="fill: rgb(75, 75, 75);"></path>
</g>
</svg>
